<?xml version="1.0" standalone="no"?>
<!DOCTYPE svg PUBLIC "-//W3C//DTD SVG 20010904//EN"
 "http://www.w3.org/TR/2001/REC-SVG-20010904/DTD/svg10.dtd">
<svg version="1.0" xmlns="http://www.w3.org/2000/svg"
 width="300.000000pt" height="300.000000pt" viewBox="0 0 300.000000 300.000000"
 preserveAspectRatio="xMidYMid meet">

<g transform="translate(0.000000,300.000000) scale(0.100000,-0.100000)"
fill="#000000" stroke="none">
<path d="M597 2893 c-4 -3 0 -15 10 -25 20 -23 -2 -26 -27 -3 -14 13 -16 12
-16 -3 0 -14 9 -18 36 -18 l35 0 3 -161 c2 -103 -1 -164 -8 -168 -5 -3 -10
-12 -10 -18 0 -8 3 -7 9 2 7 10 9 7 8 -12 -2 -25 -17 -40 -17 -16 0 5 -5 7
-10 4 -6 -4 -18 -1 -26 6 -15 12 -44 21 -44 14 0 -2 243 -213 541 -470 297
-257 539 -473 537 -480 -2 -7 -85 -115 -185 -240 l-183 -226 0 -225 c0 -123 4
-224 9 -224 15 0 625 359 637 375 6 8 17 15 25 15 8 0 6 6 -7 16 -10 8 -14 17
-9 20 6 2 9 69 8 176 -2 143 0 175 13 189 10 11 12 19 5 24 -21 12 -10 25 62
71 39 26 82 55 93 66 12 10 112 72 223 137 l201 118 -218 123 c-1383 782
-1584 894 -1605 892 -9 0 -15 3 -12 8 8 13 -14 23 -28 12 -8 -7 -18 -6 -32 5
-20 15 -20 15 3 10 12 -3 20 -1 16 4 -6 11 -28 12 -37 2z m65 -30 c-6 -2 -9
-10 -6 -15 4 -7 2 -8 -5 -4 -13 9 -5 26 12 25 9 0 8 -2 -1 -6z"/>
<path d="M584 2498 c6 -10 13 -18 16 -18 3 0 6 8 6 18 0 10 -8 18 -17 18 -13
0 -14 -4 -5 -18z"/>
</g>
</svg>
